<svg width="1372" height="585" viewBox="0 0 1372 585" fill="none" xmlns="http://www.w3.org/2000/svg">
<path fill-rule="evenodd" clip-rule="evenodd" d="M0 584.992H441.731V511.867H0V584.992Z" fill="white"/>
<path fill-rule="evenodd" clip-rule="evenodd" d="M368.21 438.809L368.148 219.404C368.148 179.039 351.639 142.477 324.985 116.006C298.331 89.5342 261.523 73.125 220.889 73.125C180.253 73.125 143.445 89.5342 116.791 116.006C90.1368 142.477 73.6278 179.039 73.6278 219.404C73.6278 259.769 90.1368 296.332 116.791 322.803C143.445 349.274 180.253 365.654 220.889 365.654H220.951C261.617 365.654 294.582 398.414 294.582 438.809H220.889C98.9773 438.809 0 340.499 0 219.404C0 98.3092 98.9773 0 220.889 0C342.801 0 441.776 98.3092 441.776 219.404V438.809H368.21Z" fill="white"/>
<mask id="mask0_0_4600" style="mask-type:luminance" maskUnits="userSpaceOnUse" x="0" y="0" width="442" height="439">
<path fill-rule="evenodd" clip-rule="evenodd" d="M368.21 438.809L368.148 219.404C368.148 179.039 351.639 142.477 324.985 116.006C298.331 89.5342 261.523 73.125 220.889 73.125C180.253 73.125 143.445 89.5342 116.791 116.006C90.1368 142.477 73.6278 179.039 73.6278 219.404C73.6278 259.769 90.1368 296.332 116.791 322.803C143.445 349.274 180.253 365.654 220.889 365.654H220.951C261.617 365.654 294.582 398.414 294.582 438.809H220.889C98.9773 438.809 0 340.499 0 219.404C0 98.3092 98.9773 0 220.889 0C342.801 0 441.776 98.3092 441.776 219.404V438.809H368.21Z" fill="white"/>
</mask>
<g mask="url(#mask0_0_4600)">
</g>
<path fill-rule="evenodd" clip-rule="evenodd" d="M1157.58 229.642C1161.24 223.002 1163.07 215.865 1163.07 208.172C1163.07 198.754 1160.06 190.388 1154.04 183.046C1148.02 175.734 1140.04 170.323 1130.09 166.842C1138.47 162.454 1145.1 156.575 1149.98 149.175C1154.87 141.745 1157.31 133.497 1157.31 124.429C1157.31 116.912 1155.66 110.038 1152.34 103.75C1149.02 97.461 1144.4 92.0497 1138.47 87.516C1132.53 82.9822 1125.42 79.443 1117.13 76.9275C1108.84 74.3827 1099.81 73.125 1090.04 73.125C1076.6 73.125 1063.6 75.816 1051.03 81.2272C1038.47 86.6385 1027.74 94.068 1018.83 103.486L1043.18 125.746C1051.03 117.877 1058.36 112.349 1065.17 109.102C1071.98 105.885 1079.83 104.276 1088.73 104.276C1098.15 104.276 1105.96 106.528 1112.16 111.091C1118.35 115.625 1121.45 121.3 1121.45 128.086C1121.45 135.778 1118.31 142.126 1112.03 147.186C1105.74 152.246 1097.89 154.791 1088.47 154.791H1075.38V183.31H1092.13C1102.6 183.31 1111.02 185.328 1117.39 189.335C1123.76 193.342 1126.95 198.754 1126.95 205.569C1126.95 213.057 1123.46 219.17 1116.48 223.879C1109.5 228.589 1100.42 230.958 1089.25 230.958C1078.96 230.958 1070.23 229.466 1063.07 226.512C1055.92 223.528 1048.68 218.38 1041.35 211.068L1017.26 233.298C1025.82 242.219 1036.46 249.181 1049.2 254.241C1061.94 259.301 1075.38 261.846 1089.51 261.846C1100.16 261.846 1109.98 260.5 1118.96 257.78C1127.95 255.089 1135.72 251.374 1142.26 246.665C1148.81 241.956 1153.91 236.281 1157.58 229.642ZM872.504 259.213V234.088L944.752 169.445C952.954 161.928 958.802 155.347 962.292 149.672C965.782 144.027 967.526 138.118 967.526 132.005C967.526 123.991 964.387 117.351 958.103 112.115C951.819 106.879 943.968 104.276 934.542 104.276C925.819 104.276 917.66 106.031 910.068 109.512C902.477 112.993 894.23 118.755 885.329 126.769L865.173 102.697C875.818 93.1027 887.075 85.8487 898.94 80.964C910.809 76.0792 923.025 73.6515 935.589 73.6515C945.363 73.6515 954.394 74.997 962.684 77.7172C970.975 80.4082 978.042 84.2107 983.887 89.0955C989.735 93.9802 994.272 99.918 997.499 106.879C1000.73 113.87 1002.34 121.446 1002.34 129.665C1002.34 140.137 999.725 149.818 994.489 158.71C989.255 167.602 980.178 177.811 967.265 189.335L922.501 229.115H1004.7V259.213H872.504ZM656.801 259.214V75.9915H634.024L585.074 95.9108V127.033L620.936 112.379V259.214H656.801ZM745.279 75.9915L669.889 259.214H709.417L728.265 211.068H803.918L822.503 259.214H863.602L789.259 75.9915H745.279ZM792.398 180.707H740.046L766.482 113.168L792.398 180.707ZM585.074 481.28L606.073 454.955C616.361 463.905 626.272 470.428 635.803 474.552C645.331 478.706 655.409 480.753 666.037 480.753C677.001 480.753 685.771 478.735 692.348 474.698C698.927 470.633 702.215 465.251 702.215 458.494C702.215 452.439 699.983 447.701 695.513 444.337C691.043 440.944 683.577 438.428 673.119 436.732L637.953 430.677C622.771 428.132 611.259 422.838 603.416 414.736C595.573 406.634 591.653 396.191 591.653 383.351C591.653 366.824 597.934 353.779 610.502 344.156C623.066 334.532 640.06 329.735 661.482 329.735C674.301 329.735 687.246 331.929 700.319 336.317C713.39 340.704 724.819 346.759 734.602 354.51L714.867 381.859C705.421 374.605 696.145 369.252 687.035 365.771C677.928 362.32 668.567 360.594 658.952 360.594C649.169 360.594 641.326 362.408 635.423 366.035C629.519 369.662 626.568 374.517 626.568 380.572C626.568 385.983 628.507 390.195 632.386 393.237C636.265 396.279 642.76 398.444 651.869 399.818L685.265 405.376C702.806 408.242 716.005 413.858 724.86 422.195C733.715 430.531 738.144 441.558 738.144 455.218C738.144 472.417 731.355 486.164 717.775 496.431C704.198 506.727 686.108 511.875 663.506 511.875C649.339 511.875 635.379 509.184 621.633 503.773C607.886 498.391 595.699 490.874 585.074 481.28ZM775.841 406.634V472.154C775.841 484.965 779.594 494.705 787.101 501.374C794.607 508.043 805.697 511.378 820.371 511.378C824.083 511.378 828.553 510.998 833.781 510.237C839.008 509.477 843.478 508.511 847.191 507.312V478.998C843.818 480.168 840.696 480.958 837.829 481.397C834.963 481.806 831.926 482.011 828.72 482.011C821.974 482.011 817.249 480.753 814.552 478.238C811.852 475.693 810.504 471.305 810.504 465.075V406.634H847.948V377.559H810.504V336.053L775.841 343.892V377.559H748.769V406.634H775.841ZM898.803 377.559V454.194C898.803 462.618 901.292 469.375 906.269 474.435C911.242 479.495 917.865 482.011 926.129 482.011C932.032 482.011 937.304 480.899 941.941 478.618C946.58 476.336 950.418 473.09 953.452 468.878V377.559H988.115V509.36H953.452V498.713C948.394 502.925 942.742 506.171 936.502 508.453C930.259 510.734 923.514 511.875 916.262 511.875C901.082 511.875 888.599 506.932 878.817 497.075C869.031 487.217 864.14 474.611 864.14 459.254V377.559H898.803ZM1113.61 498.478V509.359H1147.76V324.675L1113.1 332.251V386.159C1107.87 382.766 1102.18 380.191 1096.02 378.436C1089.87 376.652 1083.58 375.775 1077.17 375.775C1067.73 375.775 1058.83 377.5 1050.48 380.952C1042.13 384.404 1034.92 389.171 1028.85 395.255C1022.78 401.339 1017.97 408.505 1014.43 416.754C1010.89 425.032 1009.12 433.865 1009.12 443.313C1009.12 452.761 1010.84 461.624 1014.3 469.872C1017.76 478.15 1022.52 485.316 1028.6 491.371C1034.67 497.455 1041.8 502.252 1049.97 505.791C1058.16 509.359 1066.89 511.115 1076.16 511.115C1083.08 511.115 1089.74 510.061 1096.15 507.956C1102.56 505.849 1108.38 502.69 1113.61 498.478ZM1054.4 470.398C1046.98 462.969 1043.27 453.931 1043.27 443.313C1043.27 432.52 1046.94 423.452 1054.28 416.11C1061.61 408.798 1070.77 405.112 1081.73 405.112C1087.97 405.112 1093.83 406.224 1099.31 408.418C1104.79 410.611 1109.39 413.624 1113.1 417.514V468.877C1109.22 472.914 1104.63 476.044 1099.31 478.237C1094 480.431 1088.14 481.513 1081.73 481.513C1070.93 481.513 1061.83 477.799 1054.4 470.398ZM1192.29 361.852C1186.89 361.852 1182.26 359.921 1178.38 356.031C1174.5 352.17 1172.56 347.519 1172.56 342.137C1172.56 336.726 1174.5 332.104 1178.38 328.214C1182.26 324.324 1186.89 322.393 1192.29 322.393C1197.69 322.393 1202.33 324.324 1206.21 328.214C1210.09 332.104 1212.03 336.726 1212.03 342.137C1212.03 347.519 1210.09 352.17 1206.21 356.031C1202.33 359.921 1197.69 361.852 1192.29 361.852ZM1209.75 377.559V509.36H1175.09V377.559H1209.75ZM1236.19 416.637C1232.56 424.973 1230.75 433.953 1230.75 443.576C1230.75 453.17 1232.56 462.179 1236.19 470.515C1239.82 478.852 1244.79 486.076 1251.12 492.131C1257.44 498.215 1264.9 503.012 1273.51 506.551C1282.11 510.091 1291.3 511.875 1301.09 511.875C1310.87 511.875 1320.06 510.091 1328.66 506.551C1337.27 503.012 1344.73 498.215 1351.05 492.131C1357.38 486.076 1362.35 478.852 1365.98 470.515C1369.61 462.179 1371.42 453.17 1371.42 443.576C1371.42 433.953 1369.61 424.973 1365.98 416.637C1362.35 408.271 1357.38 401.017 1351.05 394.875C1344.73 388.732 1337.27 383.877 1328.66 380.338C1320.06 376.798 1310.87 375.014 1301.09 375.014C1291.3 375.014 1282.11 376.798 1273.51 380.338C1264.9 383.877 1257.44 388.732 1251.12 394.875C1244.79 401.017 1239.82 408.271 1236.19 416.637ZM1326.89 470.632C1319.81 478.062 1311.21 481.777 1301.09 481.777C1290.97 481.777 1282.36 478.062 1275.28 470.632C1268.2 463.232 1264.65 454.194 1264.65 443.576C1264.65 432.783 1268.2 423.657 1275.28 416.257C1282.36 408.827 1290.97 405.112 1301.09 405.112C1311.21 405.112 1319.81 408.827 1326.89 416.257C1333.98 423.657 1337.52 432.783 1337.52 443.576C1337.52 454.194 1333.98 463.232 1326.89 470.632Z" fill="white"/>
<mask id="mask1_0_4600" style="mask-type:luminance" maskUnits="userSpaceOnUse" x="585" y="73" width="787" height="439">
<path fill-rule="evenodd" clip-rule="evenodd" d="M1157.58 229.642C1161.24 223.002 1163.07 215.865 1163.07 208.172C1163.07 198.754 1160.06 190.388 1154.04 183.046C1148.02 175.734 1140.04 170.323 1130.09 166.842C1138.47 162.454 1145.1 156.575 1149.98 149.175C1154.87 141.745 1157.31 133.497 1157.31 124.429C1157.31 116.912 1155.66 110.038 1152.34 103.75C1149.02 97.461 1144.4 92.0497 1138.47 87.516C1132.53 82.9822 1125.42 79.443 1117.13 76.9275C1108.84 74.3827 1099.81 73.125 1090.04 73.125C1076.6 73.125 1063.6 75.816 1051.03 81.2272C1038.47 86.6385 1027.74 94.068 1018.83 103.486L1043.18 125.746C1051.03 117.877 1058.36 112.349 1065.17 109.102C1071.98 105.885 1079.83 104.276 1088.73 104.276C1098.15 104.276 1105.96 106.528 1112.16 111.091C1118.35 115.625 1121.45 121.3 1121.45 128.086C1121.45 135.778 1118.31 142.126 1112.03 147.186C1105.74 152.246 1097.89 154.791 1088.47 154.791H1075.38V183.31H1092.13C1102.6 183.31 1111.02 185.328 1117.39 189.335C1123.76 193.342 1126.95 198.754 1126.95 205.569C1126.95 213.057 1123.46 219.17 1116.48 223.879C1109.5 228.589 1100.42 230.958 1089.25 230.958C1078.96 230.958 1070.23 229.466 1063.07 226.512C1055.92 223.528 1048.68 218.38 1041.35 211.068L1017.26 233.298C1025.82 242.219 1036.46 249.181 1049.2 254.241C1061.94 259.301 1075.38 261.846 1089.51 261.846C1100.16 261.846 1109.98 260.5 1118.96 257.78C1127.95 255.089 1135.72 251.374 1142.26 246.665C1148.81 241.956 1153.91 236.281 1157.58 229.642ZM872.504 259.213V234.088L944.752 169.445C952.954 161.928 958.802 155.347 962.292 149.672C965.782 144.027 967.526 138.118 967.526 132.005C967.526 123.991 964.387 117.351 958.103 112.115C951.819 106.879 943.968 104.276 934.542 104.276C925.819 104.276 917.66 106.031 910.068 109.512C902.477 112.993 894.23 118.755 885.329 126.769L865.173 102.697C875.818 93.1027 887.075 85.8487 898.94 80.964C910.809 76.0792 923.025 73.6515 935.589 73.6515C945.363 73.6515 954.394 74.997 962.684 77.7172C970.975 80.4082 978.042 84.2107 983.887 89.0955C989.735 93.9802 994.272 99.918 997.499 106.879C1000.73 113.87 1002.34 121.446 1002.34 129.665C1002.34 140.137 999.725 149.818 994.489 158.71C989.255 167.602 980.178 177.811 967.265 189.335L922.501 229.115H1004.7V259.213H872.504ZM656.801 259.214V75.9915H634.024L585.074 95.9108V127.033L620.936 112.379V259.214H656.801ZM745.279 75.9915L669.889 259.214H709.417L728.265 211.068H803.918L822.503 259.214H863.602L789.259 75.9915H745.279ZM792.398 180.707H740.046L766.482 113.168L792.398 180.707ZM585.074 481.28L606.073 454.955C616.361 463.905 626.272 470.428 635.803 474.552C645.331 478.706 655.409 480.753 666.037 480.753C677.001 480.753 685.771 478.735 692.348 474.698C698.927 470.633 702.215 465.251 702.215 458.494C702.215 452.439 699.983 447.701 695.513 444.337C691.043 440.944 683.577 438.428 673.119 436.732L637.953 430.677C622.771 428.132 611.259 422.838 603.416 414.736C595.573 406.634 591.653 396.191 591.653 383.351C591.653 366.824 597.934 353.779 610.502 344.156C623.066 334.532 640.06 329.735 661.482 329.735C674.301 329.735 687.246 331.929 700.319 336.317C713.39 340.704 724.819 346.759 734.602 354.51L714.867 381.859C705.421 374.605 696.145 369.252 687.035 365.771C677.928 362.32 668.567 360.594 658.952 360.594C649.169 360.594 641.326 362.408 635.423 366.035C629.519 369.662 626.568 374.517 626.568 380.572C626.568 385.983 628.507 390.195 632.386 393.237C636.265 396.279 642.76 398.444 651.869 399.818L685.265 405.376C702.806 408.242 716.005 413.858 724.86 422.195C733.715 430.531 738.144 441.558 738.144 455.218C738.144 472.417 731.355 486.164 717.775 496.431C704.198 506.727 686.108 511.875 663.506 511.875C649.339 511.875 635.379 509.184 621.633 503.773C607.886 498.391 595.699 490.874 585.074 481.28ZM775.841 406.634V472.154C775.841 484.965 779.594 494.705 787.101 501.374C794.607 508.043 805.697 511.378 820.371 511.378C824.083 511.378 828.553 510.998 833.781 510.237C839.008 509.477 843.478 508.511 847.191 507.312V478.998C843.818 480.168 840.696 480.958 837.829 481.397C834.963 481.806 831.926 482.011 828.72 482.011C821.974 482.011 817.249 480.753 814.552 478.238C811.852 475.693 810.504 471.305 810.504 465.075V406.634H847.948V377.559H810.504V336.053L775.841 343.892V377.559H748.769V406.634H775.841ZM898.803 377.559V454.194C898.803 462.618 901.292 469.375 906.269 474.435C911.242 479.495 917.865 482.011 926.129 482.011C932.032 482.011 937.304 480.899 941.941 478.618C946.58 476.336 950.418 473.09 953.452 468.878V377.559H988.115V509.36H953.452V498.713C948.394 502.925 942.742 506.171 936.502 508.453C930.259 510.734 923.514 511.875 916.262 511.875C901.082 511.875 888.599 506.932 878.817 497.075C869.031 487.217 864.14 474.611 864.14 459.254V377.559H898.803ZM1113.61 498.478V509.359H1147.76V324.675L1113.1 332.251V386.159C1107.87 382.766 1102.18 380.191 1096.02 378.436C1089.87 376.652 1083.58 375.775 1077.17 375.775C1067.73 375.775 1058.83 377.5 1050.48 380.952C1042.13 384.404 1034.92 389.171 1028.85 395.255C1022.78 401.339 1017.97 408.505 1014.43 416.754C1010.89 425.032 1009.12 433.865 1009.12 443.313C1009.12 452.761 1010.84 461.624 1014.3 469.872C1017.76 478.15 1022.52 485.316 1028.6 491.371C1034.67 497.455 1041.8 502.252 1049.97 505.791C1058.16 509.359 1066.89 511.115 1076.16 511.115C1083.08 511.115 1089.74 510.061 1096.15 507.956C1102.56 505.849 1108.38 502.69 1113.61 498.478ZM1054.4 470.398C1046.98 462.969 1043.27 453.931 1043.27 443.313C1043.27 432.52 1046.94 423.452 1054.28 416.11C1061.61 408.798 1070.77 405.112 1081.73 405.112C1087.97 405.112 1093.83 406.224 1099.31 408.418C1104.79 410.611 1109.39 413.624 1113.1 417.514V468.877C1109.22 472.914 1104.63 476.044 1099.31 478.237C1094 480.431 1088.14 481.513 1081.73 481.513C1070.93 481.513 1061.83 477.799 1054.4 470.398ZM1192.29 361.852C1186.89 361.852 1182.26 359.921 1178.38 356.031C1174.5 352.17 1172.56 347.519 1172.56 342.137C1172.56 336.726 1174.5 332.104 1178.38 328.214C1182.26 324.324 1186.89 322.393 1192.29 322.393C1197.69 322.393 1202.33 324.324 1206.21 328.214C1210.09 332.104 1212.03 336.726 1212.03 342.137C1212.03 347.519 1210.09 352.17 1206.21 356.031C1202.33 359.921 1197.69 361.852 1192.29 361.852ZM1209.75 377.559V509.36H1175.09V377.559H1209.75ZM1236.19 416.637C1232.56 424.973 1230.75 433.953 1230.75 443.576C1230.75 453.17 1232.56 462.179 1236.19 470.515C1239.82 478.852 1244.79 486.076 1251.12 492.131C1257.44 498.215 1264.9 503.012 1273.51 506.551C1282.11 510.091 1291.3 511.875 1301.09 511.875C1310.87 511.875 1320.06 510.091 1328.66 506.551C1337.27 503.012 1344.73 498.215 1351.05 492.131C1357.38 486.076 1362.35 478.852 1365.98 470.515C1369.61 462.179 1371.42 453.17 1371.42 443.576C1371.42 433.953 1369.61 424.973 1365.98 416.637C1362.35 408.271 1357.38 401.017 1351.05 394.875C1344.73 388.732 1337.27 383.877 1328.66 380.338C1320.06 376.798 1310.87 375.014 1301.09 375.014C1291.3 375.014 1282.11 376.798 1273.51 380.338C1264.9 383.877 1257.44 388.732 1251.12 394.875C1244.79 401.017 1239.82 408.271 1236.19 416.637ZM1326.89 470.632C1319.81 478.062 1311.21 481.777 1301.09 481.777C1290.97 481.777 1282.36 478.062 1275.28 470.632C1268.2 463.232 1264.65 454.194 1264.65 443.576C1264.65 432.783 1268.2 423.657 1275.28 416.257C1282.36 408.827 1290.97 405.112 1301.09 405.112C1311.21 405.112 1319.81 408.827 1326.89 416.257C1333.98 423.657 1337.52 432.783 1337.52 443.576C1337.52 454.194 1333.98 463.232 1326.89 470.632Z" fill="white"/>
</mask>
<g mask="url(#mask1_0_4600)">
</g>
</svg>
